<svg xmlns="http://www.w3.org/2000/svg" height="64" width="64"><circle cx="47" cy="47" fill="#c6c5ca" r="14"/><path d="M61 47a14 14 0 0 1-14 14 14.6 14.6 0 0 1-2-.14 14 14 0 0 0 0-27.72 14.6 14.6 0 0 1 2-.14 14 14 0 0 1 14 14z" fill="#898890"/><path d="M18 27h-6a10.6 10.6 0 0 1-5-9 11 11 0 0 1 22 0 10.6 10.6 0 0 1-5 9z" fill="#ffcd00"/><path d="M29 18a10.6 10.6 0 0 1-5 9h-4a10.6 10.6 0 0 0 5-9 11 11 0 0 0-9-10.82A11.02 11.02 0 0 1 29 18z" fill="#ddb200"/><path d="M24 27v4H12v-4h6z" fill="#a78966"/><path d="M20 27h4v4h-4zm2 4v2a4 4 0 0 1-8 0v-2z" fill="#806749"/><path d="M22 31v2a4 4 0 0 1-6 3.46A3.98 3.98 0 0 0 18 33v-2z" fill="#5f4d37"/><circle cx="47" cy="47" fill="#ff3051" r="8"/><path d="M55 47a8 8 0 0 1-8 8 8.24 8.24 0 0 1-2-.25 8 8 0 0 0 0-15.5 8.24 8.24 0 0 1 2-.25 8 8 0 0 1 8 8z" fill="#cd2a00"/><path d="M17 2h2v2h-2zm15 15h2v2h-2zm-4.81 11.6 1.41-1.4 1.42 1.4-1.42 1.42zm-21.21 0 1.41-1.4 1.41 1.4-1.4 1.42zM2 17h2v2H2zm3.98-9.6 1.41-1.42 1.42 1.41-1.42 1.42zm21.21 0 1.41-1.42 1.42 1.42-1.42 1.4zM47 32a15 15 0 1 0 15 15 15.02 15.02 0 0 0-15-15zm0 28a13 13 0 1 1 13-13 13.02 13.02 0 0 1-13 13z"/><path d="m51 38.94-.89 1.8a7 7 0 1 1-6.23 0l-.88-1.8a9 9 0 1 0 8 0z"/><path d="M46 37h2v8h-2zm-3.7-19.3 1.4-1.4-2.29-2.3H45a1 1 0 0 1 1 1v15h2V15a3 3 0 0 0-3-3h-3.59l2.3-2.3-1.42-1.4-4 4a1 1 0 0 0 0 1.4zM22.7 47.3l-1.4 1.4 2.29 2.3H20a1 1 0 0 1-1-1V37.9a5 5 0 0 0 4-4.9v-1h1a1 1 0 0 0 1-1v-3.5a11.55 11.55 0 0 0 5-9.5 12 12 0 0 0-24 0 11.55 11.55 0 0 0 5 9.5V31a1 1 0 0 0 1 1h1v1a5 5 0 0 0 4 4.9V50a3 3 0 0 0 3 3h3.59l-2.3 2.3 1.42 1.4 4-4a1 1 0 0 0 0-1.4zM23 30H13v-2h10zM8 18a10 10 0 0 1 20 0 9.61 9.61 0 0 1-4.33 8H19v-6h3v-2h-8v2h3v6h-4.67A9.61 9.61 0 0 1 8 18zm7 15v-1h6v1a3 3 0 0 1-6 0z"/></svg>